<?xml version="1.0" encoding="iso-8859-1"?>
<!-- Generator: Adobe Illustrator 19.0.0, SVG Export Plug-In . SVG Version: 6.00 Build 0)  -->
<svg version="1.1" id="Capa_1" xmlns="http://www.w3.org/2000/svg" xmlns:xlink="http://www.w3.org/1999/xlink" x="0px" y="0px"
	 viewBox="0 0 512 512" style="enable-background:new 0 0 512 512;" xml:space="preserve">
<g>
	<g>
		<path d="M458.667,127.992H53.333C23.936,127.992,0,151.928,0,181.325v234.667c0,29.397,23.936,53.333,53.333,53.333h405.333
			c29.397,0,53.333-23.936,53.333-53.333V181.325C512,151.928,488.064,127.992,458.667,127.992z M341.333,351.992
			c0,29.397-23.936,53.333-53.333,53.333H117.333C87.936,405.325,64,381.389,64,351.992V245.325
			c0-29.397,23.936-53.333,53.333-53.333H288c29.397,0,53.333,23.936,53.333,53.333V351.992z M448,415.992
			c0,5.888-4.779,10.667-10.667,10.667h-42.667c-5.888,0-10.667-4.779-10.667-10.667v-85.333c0-5.888,4.779-10.667,10.667-10.667
			h42.667c5.888,0,10.667,4.779,10.667,10.667V415.992z M437.333,298.659h-42.667c-5.888,0-10.667-4.779-10.667-10.667
			s4.779-10.667,10.667-10.667h42.667c5.888,0,10.667,4.779,10.667,10.667S443.221,298.659,437.333,298.659z M437.333,255.992
			h-42.667c-5.888,0-10.667-4.779-10.667-10.667s4.779-10.667,10.667-10.667h42.667c5.888,0,10.667,4.779,10.667,10.667
			S443.221,255.992,437.333,255.992z M437.333,213.325h-42.667c-5.888,0-10.667-4.779-10.667-10.667s4.779-10.667,10.667-10.667
			h42.667c5.888,0,10.667,4.779,10.667,10.667S443.221,213.325,437.333,213.325z"/>
	</g>
</g>
<g>
	<g>
		<rect x="405.333" y="341.325" width="21.333" height="64"/>
	</g>
</g>
<g>
	<g>
		<path d="M74.667,447.992c-5.888,0-10.667,4.779-10.667,10.667v42.667c0,5.888,4.779,10.667,10.667,10.667
			s10.667-4.779,10.667-10.667v-42.667C85.333,452.771,80.555,447.992,74.667,447.992z"/>
	</g>
</g>
<g>
	<g>
		<path d="M437.333,447.992c-5.888,0-10.667,4.779-10.667,10.667v42.667c0,5.888,4.779,10.667,10.667,10.667
			c5.888,0,10.667-4.779,10.667-10.667v-42.667C448,452.771,443.221,447.992,437.333,447.992z"/>
	</g>
</g>
<g>
	<g>
		<path d="M359.531,3.128c-4.16-4.16-10.923-4.16-15.083,0L224,123.576L103.531,3.128c-4.16-4.16-10.923-4.16-15.083,0
			c-4.16,4.16-4.16,10.923,0,15.083l128,128c2.091,2.069,4.821,3.115,7.552,3.115s5.461-1.045,7.531-3.115l128-128
			C363.691,14.051,363.691,7.288,359.531,3.128z"/>
	</g>
</g>
<g>
</g>
<g>
</g>
<g>
</g>
<g>
</g>
<g>
</g>
<g>
</g>
<g>
</g>
<g>
</g>
<g>
</g>
<g>
</g>
<g>
</g>
<g>
</g>
<g>
</g>
<g>
</g>
<g>
</g>
</svg>
